# Blender v2.90.0 OBJ File: 'untitled.blend'
# www.blender.org
mtllib untitled.mtl
o Cube
v 0.366003 0.227073 -0.739994
v 0.366003 -0.227073 -0.739994
v 0.366003 0.227073 0.886397
v 0.366003 -0.227073 0.886397
v -0.366003 0.227073 -0.739994
v -0.366003 -0.227073 -0.739994
v -0.366003 0.227073 0.886397
v -0.366003 -0.227073 0.886397
v -0.287218 -0.044234 0.282166
v -0.287218 2.944877 0.119221
v -0.287218 -0.044234 -0.282166
v -0.287218 2.962514 -0.282166
v 0.287218 -0.044234 0.282166
v 0.287218 2.948496 0.121348
v 0.287218 -0.044234 -0.282166
v 0.287218 2.962514 -0.282166
v 0.284868 2.145329 0.457960
v 0.284868 2.172659 0.958483
v 0.284868 2.435281 0.141093
v 0.284868 2.948063 0.118746
v -0.284868 2.147865 0.431108
v -0.284868 2.168904 0.962458
v -0.284868 2.379981 0.142853
v -0.285881 2.948063 0.119291
v -0.326627 0.921645 2.421469
v -0.326627 1.223675 2.421469
v -0.326627 0.921645 1.066925
v -0.326627 1.223675 1.066925
v 0.326627 0.921645 2.421469
v 0.326627 1.223675 2.421469
v 0.326627 0.921645 1.066925
v 0.326627 1.223675 1.066925
v -0.320154 0.391982 1.913249
v -0.320154 1.776971 1.913249
v -0.320154 0.391982 1.594474
v -0.320154 1.776971 1.594474
v 0.320154 0.391982 1.913249
v 0.320154 1.776971 1.913249
v 0.320154 0.391982 1.594474
v 0.320154 1.776971 1.594474
vt 0.625000 0.500000
vt 0.875000 0.500000
vt 0.875000 0.750000
vt 0.625000 0.750000
vt 0.375000 0.750000
vt 0.625000 1.000000
vt 0.375000 1.000000
vt 0.375000 0.000000
vt 0.625000 0.000000
vt 0.625000 0.250000
vt 0.375000 0.250000
vt 0.125000 0.500000
vt 0.375000 0.500000
vt 0.125000 0.750000
vt 0.375000 0.000000
vt 0.625000 0.000000
vt 0.625000 0.250000
vt 0.375000 0.250000
vt 0.625000 0.500000
vt 0.375000 0.500000
vt 0.625000 0.750000
vt 0.375000 0.750000
vt 0.625000 1.000000
vt 0.375000 1.000000
vt 0.125000 0.500000
vt 0.125000 0.750000
vt 0.875000 0.500000
vt 0.875000 0.750000
vt 0.375000 0.000000
vt 0.625000 0.000000
vt 0.625000 0.250000
vt 0.375000 0.250000
vt 0.625000 0.500000
vt 0.375000 0.500000
vt 0.625000 0.750000
vt 0.375000 0.750000
vt 0.625000 1.000000
vt 0.375000 1.000000
vt 0.125000 0.500000
vt 0.125000 0.750000
vt 0.875000 0.500000
vt 0.875000 0.750000
vt 0.375000 0.000000
vt 0.625000 0.000000
vt 0.625000 0.250000
vt 0.375000 0.250000
vt 0.625000 0.500000
vt 0.375000 0.500000
vt 0.625000 0.750000
vt 0.375000 0.750000
vt 0.625000 1.000000
vt 0.375000 1.000000
vt 0.125000 0.500000
vt 0.125000 0.750000
vt 0.875000 0.500000
vt 0.875000 0.750000
vt 0.375000 0.000000
vt 0.625000 0.000000
vt 0.625000 0.250000
vt 0.375000 0.250000
vt 0.625000 0.500000
vt 0.375000 0.500000
vt 0.625000 0.750000
vt 0.375000 0.750000
vt 0.625000 1.000000
vt 0.375000 1.000000
vt 0.125000 0.500000
vt 0.125000 0.750000
vt 0.875000 0.500000
vt 0.875000 0.750000
vn 0.0000 1.0000 0.0000
vn 0.0000 0.0000 1.0000
vn -1.0000 0.0000 0.0000
vn 0.0000 -1.0000 0.0000
vn 1.0000 0.0000 0.0000
vn 0.0000 0.0000 -1.0000
vn -0.0020 0.0540 0.9985
vn -0.0032 0.9992 0.0393
vn -0.0000 0.0424 0.9991
vn 1.0000 0.0014 0.0004
vn -0.0001 0.9989 -0.0468
vn -0.0494 0.7562 0.6524
vn -0.0003 -0.7346 -0.6785
usemtl Material
s off
f 1/1/1 5/2/1 7/3/1 3/4/1
f 4/5/2 3/4/2 7/6/2 8/7/2
f 8/8/3 7/9/3 5/10/3 6/11/3
f 6/12/4 2/13/4 4/5/4 8/14/4
f 2/13/5 1/1/5 3/4/5 4/5/5
f 6/11/6 5/10/6 1/1/6 2/13/6
f 9/15/3 10/16/3 12/17/3 11/18/3
f 11/18/6 12/17/6 16/19/6 15/20/6
f 15/20/5 16/19/5 14/21/5 13/22/5
f 13/22/7 14/21/7 10/23/7 9/24/7
f 11/25/4 15/20/4 13/22/4 9/26/4
f 16/19/8 12/27/8 10/28/8 14/21/8
f 17/29/3 18/30/3 20/31/3 19/32/3
f 19/32/9 20/31/9 24/33/9 23/34/9
f 23/34/10 24/33/10 22/35/10 21/36/10
f 21/36/11 22/35/11 18/37/11 17/38/11
f 19/39/12 23/34/12 21/36/12 17/40/12
f 24/33/13 20/41/13 18/42/13 22/35/13
f 25/43/3 26/44/3 28/45/3 27/46/3
f 27/46/6 28/45/6 32/47/6 31/48/6
f 31/48/5 32/47/5 30/49/5 29/50/5
f 29/50/2 30/49/2 26/51/2 25/52/2
f 27/53/4 31/48/4 29/50/4 25/54/4
f 32/47/1 28/55/1 26/56/1 30/49/1
f 33/57/3 34/58/3 36/59/3 35/60/3
f 35/60/6 36/59/6 40/61/6 39/62/6
f 39/62/5 40/61/5 38/63/5 37/64/5
f 37/64/2 38/63/2 34/65/2 33/66/2
f 35/67/4 39/62/4 37/64/4 33/68/4
f 40/61/1 36/69/1 34/70/1 38/63/1
